<svg xmlns="http://www.w3.org/2000/svg" viewBox="0 0 297.79 323.56"><path d="M292.59 190.87A151.46 151.46 0 0 0 185.5 5.38C104.7-16.27 0 28.99 0 112.47c0 61.17 85.11 41.48 95.45 69.73 16.38 44.75-37.88 102.5 11.65 115.77a151.45 151.45 0 0 0 185.49-107.1z" fill="#6749fc" fill-rule="evenodd" opacity=".05"/><path d="M45.25 44.43Q-11.78 76.5 10.88 153.29c22.61 76.79 88.21 13.48 94.81 36.66 8.67 30.47-26.82 84.71-17.39 112.71q7 20.83 98.55 19.85" fill="none" stroke="#6749fc" stroke-miterlimit="10" stroke-width="2" opacity=".05"/><path d="M190.88 295.12s-17-10-30-23-18-25-8-41 30-31 32-61-20-28-25-82 5-68 5-68" fill="none" stroke="#6749fc" stroke-miterlimit="10" stroke-width="2" opacity=".05"/><path fill="#533ba4" d="M227.69 166.71l-.3-.22.3.22zM227.7 166.7l-.31-.21.3.22.01-.01z"/></svg>