<svg xmlns="http://www.w3.org/2000/svg" viewBox="0 0 297.79 323.56"><path d="M292.59 190.87A151.45 151.45 0 0 0 185.5 5.38C104.7-16.27 0 28.99 0 112.47c0 61.17 85.12 41.48 95.46 69.73 16.37 44.75-37.89 102.5 11.64 115.77a151.44 151.44 0 0 0 185.49-107.1z" fill="#f5f6f7" fill-rule="evenodd" opacity=".05"/><g opacity=".05" fill="#f5f6f7"><path d="M44.81 43.56c-13.69 7.69-24 17.34-31 28.94S3.42 97.6 3.42 112.97c0 12.33 2.12 25.87 6.46 40.6 4.67 15.87 11.2 25.93 18.78 32s16.14 8.13 24.63 8.13c8.65 0 17.26-2.08 24.94-4.13 3.84-1 7.45-2.05 10.69-2.81a39.44 39.44 0 0 1 8.5-1.26 8.87 8.87 0 0 1 4.72 1.07 5.86 5.86 0 0 1 2.54 3.65 38.69 38.69 0 0 1 1.34 10.63c0 13.28-5 29.46-10.14 45.54s-10.22 32.06-10.23 45.23a35.34 35.34 0 0 0 1.66 11.34c1.22 3.63 4.16 6.7 8.61 9.26 6.69 3.84 16.87 6.64 30.65 8.52s31.11 2.81 52.06 2.81q4 0 8.18-.05v-2q-4.17 0-8.16.05-41.77 0-64.21-5c-7.47-1.64-13.31-3.7-17.5-6.11s-6.71-5.15-7.72-8.15a33.8 33.8 0 0 1-1.55-10.71c0-12.66 5-28.55 10.14-44.63s10.22-32.37 10.23-46.14a40.73 40.73 0 0 0-1.41-11.18 8 8 0 0 0-3.42-4.81 10.89 10.89 0 0 0-5.77-1.36 41.06 41.06 0 0 0-9 1.31c-9.93 2.33-22.69 6.89-35.18 6.89-8.19 0-16.22-1.94-23.38-7.69s-13.52-15.4-18.11-31c-4.3-14.59-6.38-27.94-6.38-40 0-15.07 3.39-28.19 10.1-39.45S32.3 52.86 45.75 45.3l-1-1.74z"/><path d="M191.39 294.26l-.19-.11c-1.88-1.13-17.54-10.66-29.61-22.74a56.84 56.84 0 0 1-9.58-12 24.45 24.45 0 0 1-3.42-12.12c0-4.79 1.57-9.89 5.14-15.61 4.91-7.87 12.42-15.63 19-25.22s12.16-21 13.17-36.24c.09-1.32.13-2.58.13-3.79a39.21 39.21 0 0 0-3.34-16.43c-3.05-6.95-7.61-12.8-11.83-21.72s-8.17-20.94-10-40.22c-1-10.77-1.4-19.94-1.4-27.72 0-15.55 1.6-25.51 3.17-31.55a39.31 39.31 0 0 1 2.18-6.37 13.88 13.88 0 0 1 .68-1.36l.17-.29v-.06l-.31-.22.31.22-.31-.22.31.22-1.63-1.16c-.16.23-6.59 9.41-6.59 40.77 0 7.84.41 17.07 1.41 27.9a134.56 134.56 0 0 0 6 30.57c3.91 11.69 8.78 18.87 12.58 25.45a53.28 53.28 0 0 1 4.69 9.95 38 38 0 0 1 1.86 12.22c0 1.16 0 2.38-.12 3.65-1 14.79-6.39 25.84-12.83 35.26s-13.94 17.15-19 25.28c-3.72 5.94-5.45 11.43-5.45 16.67a26.54 26.54 0 0 0 3.67 13.09 59.13 59.13 0 0 0 9.92 12.48c13.12 13.11 30.16 23.13 30.2 23.15l1-1.72z"/></g></svg>