<svg xmlns="http://www.w3.org/2000/svg" viewBox="0 0 520 193"><path d="M218.68 171h133.37a8 8 0 0 1 7.95 8v6.1a8 8 0 0 1-7.95 7.95H72a8 8 0 0 1-8-7.95V179a8 8 0 0 1 8-8h68.2q7.75-2.31 7.76-10 0-11-15.91-11H8a8 8 0 0 1-8-7.95V136a8 8 0 0 1 8-8h123q5.68-2.31 5.68-10T131 108h-16a8 8 0 0 1-7.95-7.95V94a8 8 0 0 1 7.95-8h69.2q7.81-2.31 7.82-10 0-11-16-11H25a8 8 0 0 1-8-8v-6a8 8 0 0 1 8-8h115.16q7.77-2.31 7.78-10 0-11-15.94-11H80a8 8 0 0 1-8-8V8a8 8 0 0 1 8-8h212.1a8 8 0 0 1 7.9 8v6.1a8 8 0 0 1-7.95 8H235q-15.92 0-15.91 11 0 7.68 7.76 10h119.2a8 8 0 0 1 7.95 8v6.1a8 8 0 0 1-7.95 8H291q-14.82 0-14.82 11 0 7.68 7.23 10h152.64A8 8 0 0 1 444 94v6.1a8 8 0 0 1-7.95 7.95H184q-5.73 2.31-5.72 10T184 128h99.05a8 8 0 0 1 7.95 8v6.1a8 8 0 0 1-7.95 7.95H227q-16.25 0-16.25 11 0 7.63 7.93 9.95z" fill="#fff" fill-rule="evenodd" opacity=".05"/></svg>