<svg xmlns="http://www.w3.org/2000/svg" width="204" height="29">
	<g fill="none" fill-rule="nonzero">
		<g fill="#4c18f3">
			<path d="M195.75 17.629c-.375.687-.9 1.221-1.5 1.755a6.536 6.536 0 0 1-1.875 1.145c-.75.382-1.65.534-2.7.534-.675 0-1.35-.076-1.95-.305-.6-.23-1.05-.458-1.5-.84-.45-.381-.75-.763-.975-1.297-.225-.534-.375-1.068-.375-1.679 0-1.068.225-1.984.6-2.9.375-.84.9-1.603 1.425-2.213.6-.61 1.2-1.068 1.875-1.45.675-.305 1.35-.534 1.95-.534.45 0 .825.076 1.2.229.375.152.675.381.975.687.3.305.525.61.675.915.15.382.225.687.225 1.069 0 .305-.075.763-.225 1.22a4.16 4.16 0 0 1-.75 1.374c-.3.458-.825.764-1.35 1.069-.6.305-1.275.458-2.175.458-.225 0-.375 0-.6-.077-.15 0-.3-.076-.375-.076 0 .84.225 1.45.675 1.908.45.458 1.05.687 1.725.687s1.2-.153 1.725-.382c.525-.305.975-.534 1.35-.84.45-.38.825-.762 1.125-1.297 0-.076.075-.152.15-.228l.15-.153c.075-.076.15-.076.225-.076.15 0 .3.076.375.152.075.077.15.23.15.382 0 .076 0 .152-.075.229 0 .076-.075.152-.075.229 0 .152 0 .229-.075.305zm-7.35-1.984c.525 0 .975-.153 1.425-.382.45-.305.825-.61 1.125-.992.3-.382.6-.84.75-1.221.15-.458.3-.763.3-1.068 0-.382-.15-.535-.525-.535s-.75.153-1.125.458c-.375.306-.675.687-.975 1.145-.3.458-.525.916-.675 1.45-.15.534-.3.763-.3 1.145z"/>
			<path d="M182.025 18.163c0 .305.075.534.225.763.15.23.375.306.675.306.375 0 .75-.153 1.05-.382.375-.229.675-.534.975-.84.3-.305.6-.763.9-1.22 0-.077.075-.153.15-.23l.15-.152c.075-.076.15-.076.225-.076.15 0 .3.076.375.152.15.077.15.23.15.382 0 .076 0 .152-.075.229 0 .076-.075.152-.075.229 0 .076-.075.152-.075.229-.375.686-.825 1.22-1.35 1.755-.45.458-.9.84-1.5 1.145-.6.381-1.2.534-1.875.534-1.05 0-1.875-.305-2.55-.84-.675-.534-.975-1.297-.975-2.213 0-.534.075-1.068.225-1.831.15-.687.375-1.45.6-2.137l.675-2.06c.225-.688.45-1.145.6-1.527.075-.153.15-.305.3-.382.15-.076.3-.152.45-.152.225 0 .45.076.675.229.225.152.525.305.675.458.225.152.375.305.525.534.15.152.225.305.225.458 0 .458-.075.915-.225 1.373-.15.458-.375.992-.525 1.603-.225.534-.375 1.145-.525 1.755 0 .61-.075 1.221-.075 1.908zM186 4.808c0 .381-.075.763-.15 1.068-.075.306-.3.687-.525.916-.225.23-.45.458-.675.61-.3.153-.525.23-.825.23-.375 0-.75-.153-1.05-.382-.3-.305-.45-.687-.45-1.145 0-.381.075-.687.225-.992.15-.305.3-.61.525-.916.225-.305.45-.458.75-.61.3-.153.6-.23.9-.23.375 0 .75.154.975.382a2 2 0 0 1 .3 1.069z"/>
			<path d="M175.8 18.163c0 .305.075.534.225.763.15.23.375.306.675.306.375 0 .75-.153 1.05-.382.375-.229.675-.534.975-.84.3-.305.6-.763.9-1.22 0-.077.075-.153.15-.23l.15-.152c.075-.076.15-.076.225-.076.15 0 .3.076.375.152.15.077.15.23.15.382 0 .076 0 .152-.075.229 0 .076-.075.152-.075.229 0 .076-.075.152-.075.229-.375.686-.825 1.22-1.35 1.755-.45.458-.9.84-1.5 1.145-.6.381-1.2.534-1.875.534-1.05 0-1.875-.305-2.55-.84-.675-.534-.975-1.22-.975-1.984 0-.61.075-1.145.225-1.679.15-.534.3-1.068.45-1.526.15-.534.3-.992.45-1.45a4.3 4.3 0 0 0 .225-1.297c0-.153-.075-.23-.15-.306a.568.568 0 0 0-.375-.152c-.45 0-.9.229-1.35.61a5.61 5.61 0 0 0-1.35 1.755 16.07 16.07 0 0 0-1.05 2.748c-.3 1.068-.45 2.29-.45 3.587 0 .229-.075.381-.15.458-.075.076-.225.076-.45.076-.75 0-1.35-.153-1.8-.458-.525-.305-.75-.687-.75-1.068 0-.764.075-1.603.225-2.443.15-.84.375-1.679.6-2.518.225-.84.45-1.526.75-2.213s.45-1.221.6-1.603c.15-.381.375-.534.75-.534.225 0 .45.076.825.229.3.153.675.61 1.125 1.221.375-.305.825-.61 1.275-.916a5.58 5.58 0 0 1 1.35-.61c.525-.153 1.05-.306 1.65-.306.3 0 .6.077.825.23.3.152.525.305.75.534.225.229.375.457.525.763.15.305.225.534.225.84 0 .457-.075.839-.225 1.373-.15.458-.3.992-.525 1.45-.15.534-.3.992-.525 1.526 0 .687-.075 1.145-.075 1.68z"/>
			<path d="M167.85 17.629c-.375.687-.9 1.221-1.5 1.755a6.536 6.536 0 0 1-1.875 1.145c-.75.382-1.65.534-2.7.534-.675 0-1.35-.076-1.95-.305-.6-.23-1.05-.458-1.5-.84-.45-.381-.75-.763-.975-1.297-.225-.534-.375-1.068-.375-1.679 0-1.068.225-1.984.6-2.9.375-.84.9-1.603 1.425-2.213.6-.61 1.2-1.068 1.875-1.45a3.963 3.963 0 0 1 1.95-.534c.45 0 .825.076 1.2.229.375.152.675.381.975.687.3.305.525.61.675.915.15.382.225.687.225 1.069 0 .305-.075.763-.225 1.22a4.16 4.16 0 0 1-.75 1.374c-.3.458-.825.764-1.35 1.069-.6.305-1.275.458-2.175.458-.225 0-.375 0-.6-.077-.15 0-.3-.076-.375-.076 0 .84.225 1.45.675 1.908.45.458 1.05.687 1.725.687s1.2-.153 1.725-.382c.525-.305.975-.534 1.35-.84.45-.38.825-.762 1.125-1.297 0-.076.075-.152.15-.228l.15-.153c.075-.076.15-.076.225-.076.15 0 .3.076.375.152.075.077.15.23.15.382 0 .076 0 .152-.075.229 0 .076-.075.152-.075.229 0 .152-.075.229-.075.305zm-7.35-1.984c.525 0 .975-.153 1.425-.382.45-.305.825-.61 1.125-.992.3-.382.6-.84.75-1.221.15-.458.3-.763.3-1.068 0-.382-.15-.535-.525-.535s-.75.153-1.125.458c-.375.306-.675.687-.975 1.145-.3.458-.525.916-.675 1.45-.225.382-.3.763-.3 1.145z"/>
			<path d="M155.475 14.118c-.225 1.985-.525 3.816-.9 5.419.825-.305 1.5-.763 2.025-1.145.525-.458.975-.992 1.275-1.526 0-.077.075-.153.15-.23l.15-.152c.075-.076.15-.076.225-.076.15 0 .3.076.375.153.075.076.15.228.15.381 0 .076 0 .23-.075.382l-.075.229c-.45.686-1.05 1.373-1.8 1.908-.75.61-1.725 1.144-3 1.602-.375 1.145-.825 2.213-1.35 3.13-.525.915-1.05 1.754-1.725 2.365-.6.687-1.275 1.145-1.95 1.526-.675.382-1.425.534-2.175.534-.675 0-1.35-.076-1.95-.305-.6-.229-1.05-.534-1.5-.84-.45-.38-.75-.762-.975-1.22-.225-.458-.375-.916-.375-1.298 0-.687.225-1.297.675-1.831.45-.535 1.05-.916 1.875-1.298.75-.305 1.65-.61 2.7-.84.975-.228 2.025-.38 3.075-.533l1.125-.153c.225-.61.45-1.297.675-1.908.15-.61.3-1.297.375-1.908-.45.458-.975.84-1.5 1.145-.45.305-.975.534-1.575.763-.6.23-1.125.382-1.725.382-.675 0-1.35-.077-1.95-.306-.6-.229-1.125-.534-1.5-.992-.45-.381-.75-.915-.975-1.526-.225-.61-.375-1.221-.375-1.984 0-.916.15-1.832.375-2.748-.675-.152-1.35-.305-1.95-.61-.6-.23-1.05-.534-1.5-.84-.45-.305-.75-.763-.975-1.144-.225-.458-.375-.916-.375-1.45 0-.763.225-1.527.675-2.137.45-.687.975-1.221 1.575-1.755.6-.458 1.2-.84 1.8-1.145a3.302 3.302 0 0 1 1.5-.382c.3 0 .45.077.45.306 0 .152-.075.228-.15.305-.075.076-.225.229-.375.305-.15.153-.375.305-.675.534-.225.23-.45.458-.675.763-.225.306-.375.687-.525 1.069-.15.381-.225.916-.225 1.526s.15 1.145.525 1.68c.375.533.9.915 1.575 1.22.525-1.22 1.275-2.366 2.1-3.434.9-1.068 1.8-1.984 2.85-2.824.975-.84 2.025-1.45 3.075-1.908C153 .84 153.975.611 154.8.611c.525 0 1.05.076 1.5.305.45.229.9.458 1.2.763.3.305.6.687.75 1.068.15.382.3.764.3 1.145 0 .84-.3 1.68-.9 2.519-.6.839-1.35 1.678-2.4 2.365-1.05.687-2.25 1.374-3.6 1.832-1.35.458-2.925.763-4.575.84.075.839-.075 1.602-.075 2.289 0 .916.225 1.602.6 2.06.375.458.975.687 1.65.687.45 0 .975-.152 1.425-.381.45-.306.9-.535 1.275-.916.45-.382.9-.84 1.275-1.298.225-.686.45-1.297.75-1.831.225-.458.525-.916.9-1.297.375-.382.75-.611 1.2-.611.3 0 .525.076.75.229.225.153.3.458.3.84 0 .381-.075.686-.3 1.068-.225.381-.375.61-.6.916-.15.305-.45.61-.75.915zm-.225-11.6c-.6 0-1.275.23-1.95.61-.675.383-1.425.993-2.1 1.68a16.18 16.18 0 0 0-1.95 2.442c-.6.916-1.125 1.832-1.5 2.9 1.05-.076 2.1-.382 3.15-.84 1.05-.457 1.95-.992 2.7-1.602a12.06 12.06 0 0 0 1.95-1.984c.525-.687.75-1.374.75-1.985 0-.305-.075-.61-.3-.763-.225-.152-.375-.458-.75-.458zm-9.225 24.421c.3 0 .675-.152 1.05-.381.375-.23.825-.61 1.2-.992.375-.458.825-.916 1.2-1.527l1.125-1.831-.45.153c-.675.152-1.35.381-2.025.61-.675.229-1.2.534-1.65.763-.45.23-.825.687-1.125.992-.3.306-.45.687-.45.992.075.84.45 1.221 1.125 1.221zM195.6 3.282h-1.35v-.687h3.6v.687h-1.35v3.892h-.825V3.282h-.075zm3.075-.764h1.275l1.2 3.282 1.125-3.282h1.275v4.58h-.825V3.433l-1.35 3.663h-.525l-1.35-3.663v3.663h-.75V2.518h-.075z"/>
		</g>
		<g fill="#4c18f3">
			<path d="M22.875 23.734c-1.05-.076-1.8-.305-2.625-.916-.675-.61-1.2-1.526-1.65-2.747-.9-2.595-1.875-5.8-2.325-7.479 6-2.137 8.85-4.884 8.85-8.013 0-2.824-2.25-4.732-7.35-4.045-2.25.305-3.9.61-5.625.916C5.7 2.747 3.3 5.647 3.3 8.547c0 1.985 1.725 3.358 3.675 3.358 1.35 0 1.5-.763 1.05-1.068-.825-.61-1.35-1.298-1.35-2.366 0-1.755 1.275-3.892 5.925-4.96.3-.077.525-.153.825-.153-.75 2.213-2.175 6.181-3.375 9.54-7.125 2.9-9.375 6.868-9.375 9.615 0 2.06 1.575 3.282 3.525 3.282 2.85 0 5.175-1.984 6.975-6.41a101.754 101.754 0 0 0 2.1-5.42c.45 1.756 1.275 4.732 2.175 7.174.525 1.374.975 2.443 1.725 3.13.825.839 2.025 1.297 3.375 1.297 1.65 0 2.625-.534 2.85-.992.225-.458.075-.763-.525-.84zm-15-5.342c-1.575 3.282-2.55 4.655-3.75 4.884-.525.077-.975-.152-.975-.992 0-.916.975-4.273 6.075-7.02-.6 1.373-1.05 2.441-1.35 3.128zm6.3-7.097c1.275-3.434 2.4-6.716 3-8.7 2.7-.306 4.05.534 4.05 2.594 0 1.985-1.65 3.969-5.25 5.343-.6.305-1.2.534-1.8.763zm76.275 7.173c-.525 0-1.35.916-2.775.916-.975 0-1.5-.61-1.5-1.984 0-.305.075-.687.15-1.068h.375c4.65 0 7.425-2.748 7.425-5.343 0-1.907-1.425-2.9-2.85-2.9-3.45 0-7.65 4.198-8.325 8.472-.975 1.755-1.8 2.365-2.325 2.365-.6 0-.525-.84 0-2.365.825-2.29 1.95-5.495 2.925-7.861C85.575 3.892 86.775 1.221 87 .687c.15-.534-.15-.61-.675-.534-2.025.305-3.15.229-3.975 1.679-1.35 2.29-7.125 11.447-7.125 11.447S76.95 1.908 77.175.763c.15-.61-.225-.84-.75-.687-.675.23-1.2.306-2.1.61-.75.23-.9.535-1.425 1.756-.3.61-2.475 7.326-4.05 10.684-1.65 3.587-3 5.648-6.075 5.953-.825.076-.9.534-.675 1.068.45 1.145 1.725 1.832 2.775 1.832 1.95 0 3.3-1.374 4.65-4.655 1.125-2.671 2.7-7.327 3.9-10.837-.975 5.418-2.175 12.668-2.4 14.576-.075 1.145 1.35 1.145 1.95.076 1.575-2.9 4.95-8.7 7.95-14.042-1.2 2.977-2.7 6.564-3.375 8.548-.45 1.45-.9 2.518-.9 3.892 0 1.526 1.05 2.518 2.25 2.518s2.55-.61 4.05-2.518c.45 1.602 1.575 2.518 3.525 2.518 2.55 0 4.425-1.755 4.425-2.9 0-.458-.15-.687-.45-.687zm-.075-8.013c1.425 0 .3 3.816-3.45 3.969.975-2.06 2.475-3.969 3.45-3.969z"/>
			<path d="M111.9 4.121c1.35-.992 2.4-1.068 2.7-1.297.45-.382-.15-2.442-2.025-2.442-3 0-4.575 3.815-5.775 7.173a251.41 251.41 0 0 0-2.325 6.945c.3-4.732.9-12.21.9-13.05 0-.458 0-.687-.225-.763-.075-.076-.3-.076-.375-.076h-6.3c-7.65 0-7.05 7.25-2.325 7.25.9 0 .9-.84.45-1.069-1.725-.84-2.1-4.045 3.675-4.045h1.575c-.75 2.519-2.025 6.716-3.75 10.38-1.8 3.968-2.85 5.418-5.7 6.18-.825.23-.75.688-.525 1.222.3.61 1.275 1.374 2.55 1.374 2.25 0 3.45-1.68 4.65-5.037 1.2-3.282 2.175-6.41 2.925-8.853v.076c-.225 5.266-.375 11.982-.45 13.203 0 .916.3.916 1.05.61 1.425-.61 1.95-.839 2.325-2.06 1.2-3.74 2.4-6.945 3.75-10.455.75-2.366 2.1-4.426 3.225-5.266z"/>
			<path d="M116.025 8.395c-6 0-9 7.097-9 10.15 0 2.213 1.35 3.51 3.675 3.51 5.025 0 7.95-7.02 7.95-10.226 0-2.137-.975-3.434-2.625-3.434zm-4.35 10.837c-2.25 0 .75-8.548 2.775-8.548 1.875 0-.375 8.548-2.775 8.548z"/>
			<path d="M131.925 4.655c-.525 0-2.25.077-4.95.153.45-1.069.75-1.908 1.05-2.519.15-.457.075-.686-.375-.686-.375 0-1.125.152-1.95.381-1.2.305-1.275.458-1.95 1.832-.15.305-.3.687-.45 1.145-2.625.076-5.625.228-9 .381-1.35.076-3.15 1.755-1.575 1.755 3.15 0 6.6.153 9.675.23-.45 1.297-1.05 2.9-1.8 4.807-.9 2.366-2.175 5.19-2.175 7.174 0 1.45.975 2.67 2.7 2.67 2.175 0 3-1.296 2.775-1.983-.15-.458-.525-.382-1.35-.382-.6 0-.75-.381-.75-.84 0-.686.3-1.373.675-2.289A375.35 375.35 0 0 1 126 7.48h2.475c1.875 0 2.55-.076 3.225-.534.525-.458.825-.687 1.125-1.069.225-.458.375-1.22-.9-1.22zM55.65 7.784c.975 0 2.025-.916 2.25-2.06.225-1.145-.375-2.06-1.35-2.06-.975 0-2.025.915-2.25 2.06-.225 1.144.375 2.06 1.35 2.06z"/>
			<path d="M59.925 19.613c-.45-.076-.6-.381-.6-.992 0-.687.225-1.603.525-2.671C67.65 12.21 72.825.687 66.975.687c-3.9 0-8.775 8.776-10.275 14.729-.9 1.45-2.325 3.587-3.375 3.587-.825 0-.6-1.069 0-2.671 1.35-3.74 3.3-7.556 3.3-7.556s-.975-.458-2.325-.229c-.9.153-1.275.61-1.65 1.374-.075.076-.075.153-.15.305-2.55 5.571-4.125 8.7-5.625 8.7-1.05 0-.45-1.144.15-2.747 1.35-3.74 3.3-7.555 3.3-7.555s-.975-.458-2.325-.23c-.825.153-1.2.535-1.65 1.298-.3-.763-.825-1.526-2.1-1.526-3.75 0-6.6 4.96-7.425 8.395-.75 1.22-1.8 2.518-2.55 2.518-.75 0-.75-.687-.15-2.29.975-2.518 2.85-6.944 4.275-10.378 3.675.076 7.2.152 9.225.152 1.875 0 2.55-.076 3.225-.534.525-.458.825-.687 1.125-1.068.3-.382.45-1.145-.825-1.145-.675 0-5.775.152-11.85.381.45-1.068.825-1.908 1.05-2.365.15-.077-.075-.382-.525-.306-.675.077-.975.153-1.725.382-1.125.305-1.425.61-2.025 1.984l-.375.763c-2.4.077-4.875.23-7.125.306-1.35.076-2.775 1.526-1.2 1.526 1.95 0 4.725.076 7.5.076a53.133 53.133 0 0 0-1.5 3.663c-.075.077-.075.23-.15.382-1.95 4.426-4.875 9.158-8.1 9.158-1.275 0-1.8-.84-1.8-1.908 0-.382.075-.84.15-1.297h.45c4.65 0 7.35-2.9 7.35-5.572 0-1.678-1.425-2.747-2.775-2.747-3.825 0-8.475 5.037-8.475 9.692 0 2.519 1.35 4.198 3.6 4.198 3 0 5.4-1.908 7.05-3.969-.075.458-.15.916-.15 1.374 0 1.45.825 2.518 2.175 2.518 1.5 0 2.85-.916 4.05-2.594.225 1.602 1.2 2.594 2.55 2.594 1.575 0 3-1.22 4.05-2.747.075 1.374.525 2.747 2.25 2.747 1.275 0 2.55-.687 4.05-2.823.075 1.373.6 2.9 2.25 2.9 1.575 0 3-1.145 4.275-2.9.15 1.755 1.05 2.823 2.4 2.823 1.35 0 2.55-.916 2.475-1.908-.075-.84-.675-.458-1.125-.534zM66.6 3.205c.825 0-1.5 6.182-5.7 9.616 1.8-4.503 4.725-9.616 5.7-9.616zm-39.15 7.098c1.425 0 .6 4.12-3.3 4.12h-.075c.9-2.136 2.4-4.12 3.375-4.12zm13.05 8.929c-2.175 0 1.5-8.471 3.6-8.471.825 0 1.05.534 1.2.992-1.725 4.044-3.075 7.479-4.8 7.479z"/>
		</g>
	</g>
</svg>
