<svg xmlns="http://www.w3.org/2000/svg" viewBox="0 0 271.01 278.52"><defs><linearGradient id="a" x1="-177.64" y1="539.25" x2="-177.75" y2="539.96" gradientTransform="matrix(69.62 -259.83 -262.64 -70.37 154194.2 -8034.16)" gradientUnits="userSpaceOnUse"><stop offset="0" stop-color="#41299a"/><stop offset="1" stop-color="#4c18f3"/></linearGradient></defs><path d="M305.4 206.91a134.5 134.5 0 0 0-95.11-164.73C138.54 23 45.57 63.15 45.57 137.29c0 54.31 75.58 36.83 84.76 61.92 14.55 39.74-33.64 91 10.34 102.8a134.49 134.49 0 0 0 164.73-95.1z" transform="translate(-39.01 -37.4)" fill-rule="evenodd" fill="url(#a)"/><path d="M40.24 33.52q-54.39 27.72-33.39 95c21 67.28 83.74 12.3 89.87 32.6 8.05 26.7-26 73.92-17.24 98.46q6.51 18.27 93.51 17.93" fill="none" stroke="#f5be44" stroke-linecap="square" stroke-width="2"/><circle cx="74.32" cy="183.18" r="2.5" fill="#f5a623"/><circle cx="99.32" cy="127.18" r="2.5" fill="#f5a623"/><circle cx="173.32" cy="269.18" r="2.5" fill="#f5a623"/><circle cx="119.32" cy="230.18" r="2.5" fill="#f5a623"/><circle cx="77.32" cy="58.18" r="2.5" fill="#f5a623"/></svg>