<svg xmlns="http://www.w3.org/2000/svg" width="134" height="29">
	<g fill="rgba(255, 255, 255, 0.35)">
		<path d="M22.875 23.734c-1.05-.076-1.8-.305-2.625-.916-.675-.61-1.2-1.526-1.65-2.747-.9-2.595-1.875-5.8-2.325-7.479 6-2.137 8.85-4.884 8.85-8.013 0-2.824-2.25-4.732-7.35-4.045-2.25.305-3.9.61-5.625.916C5.7 2.747 3.3 5.647 3.3 8.547c0 1.985 1.725 3.358 3.675 3.358 1.35 0 1.5-.763 1.05-1.068-.825-.61-1.35-1.298-1.35-2.366 0-1.755 1.275-3.892 5.925-4.96.3-.077.525-.153.825-.153-.75 2.213-2.175 6.181-3.375 9.54-7.125 2.9-9.375 6.868-9.375 9.615 0 2.06 1.575 3.282 3.525 3.282 2.85 0 5.175-1.984 6.975-6.41a101.754 101.754 0 0 0 2.1-5.42c.45 1.756 1.275 4.732 2.175 7.174.525 1.374.975 2.443 1.725 3.13.825.839 2.025 1.297 3.375 1.297 1.65 0 2.625-.534 2.85-.992.225-.458.075-.763-.525-.84zm-15-5.342c-1.575 3.282-2.55 4.655-3.75 4.884-.525.077-.975-.152-.975-.992 0-.916.975-4.273 6.075-7.02-.6 1.373-1.05 2.441-1.35 3.128zm6.3-7.097c1.275-3.434 2.4-6.716 3-8.7 2.7-.306 4.05.534 4.05 2.594 0 1.985-1.65 3.969-5.25 5.343-.6.305-1.2.534-1.8.763zm76.275 7.173c-.525 0-1.35.916-2.775.916-.975 0-1.5-.61-1.5-1.984 0-.305.075-.687.15-1.068h.375c4.65 0 7.425-2.748 7.425-5.343 0-1.907-1.425-2.9-2.85-2.9-3.45 0-7.65 4.198-8.325 8.472-.975 1.755-1.8 2.365-2.325 2.365-.6 0-.525-.84 0-2.365.825-2.29 1.95-5.495 2.925-7.861C85.575 3.892 86.775 1.221 87 .687c.15-.534-.15-.61-.675-.534-2.025.305-3.15.229-3.975 1.679-1.35 2.29-7.125 11.447-7.125 11.447S76.95 1.908 77.175.763c.15-.61-.225-.84-.75-.687-.675.23-1.2.306-2.1.61-.75.23-.9.535-1.425 1.756-.3.61-2.475 7.326-4.05 10.684-1.65 3.587-3 5.648-6.075 5.953-.825.076-.9.534-.675 1.068.45 1.145 1.725 1.832 2.775 1.832 1.95 0 3.3-1.374 4.65-4.655 1.125-2.671 2.7-7.327 3.9-10.837-.975 5.418-2.175 12.668-2.4 14.576-.075 1.145 1.35 1.145 1.95.076 1.575-2.9 4.95-8.7 7.95-14.042-1.2 2.977-2.7 6.564-3.375 8.548-.45 1.45-.9 2.518-.9 3.892 0 1.526 1.05 2.518 2.25 2.518s2.55-.61 4.05-2.518c.45 1.602 1.575 2.518 3.525 2.518 2.55 0 4.425-1.755 4.425-2.9 0-.458-.15-.687-.45-.687zm-.075-8.013c1.425 0 .3 3.816-3.45 3.969.975-2.06 2.475-3.969 3.45-3.969z"/>
		<path d="M111.9 4.121c1.35-.992 2.4-1.068 2.7-1.297.45-.382-.15-2.442-2.025-2.442-3 0-4.575 3.815-5.775 7.173a251.41 251.41 0 0 0-2.325 6.945c.3-4.732.9-12.21.9-13.05 0-.458 0-.687-.225-.763-.075-.076-.3-.076-.375-.076h-6.3c-7.65 0-7.05 7.25-2.325 7.25.9 0 .9-.84.45-1.069-1.725-.84-2.1-4.045 3.675-4.045h1.575c-.75 2.519-2.025 6.716-3.75 10.38-1.8 3.968-2.85 5.418-5.7 6.18-.825.23-.75.688-.525 1.222.3.61 1.275 1.374 2.55 1.374 2.25 0 3.45-1.68 4.65-5.037 1.2-3.282 2.175-6.41 2.925-8.853v.076c-.225 5.266-.375 11.982-.45 13.203 0 .916.3.916 1.05.61 1.425-.61 1.95-.839 2.325-2.06 1.2-3.74 2.4-6.945 3.75-10.455.75-2.366 2.1-4.426 3.225-5.266z"/>
		<path d="M116.025 8.395c-6 0-9 7.097-9 10.15 0 2.213 1.35 3.51 3.675 3.51 5.025 0 7.95-7.02 7.95-10.226 0-2.137-.975-3.434-2.625-3.434zm-4.35 10.837c-2.25 0 .75-8.548 2.775-8.548 1.875 0-.375 8.548-2.775 8.548z"/>
		<path d="M131.925 4.655c-.525 0-2.25.077-4.95.153.45-1.069.75-1.908 1.05-2.519.15-.457.075-.686-.375-.686-.375 0-1.125.152-1.95.381-1.2.305-1.275.458-1.95 1.832-.15.305-.3.687-.45 1.145-2.625.076-5.625.228-9 .381-1.35.076-3.15 1.755-1.575 1.755 3.15 0 6.6.153 9.675.23-.45 1.297-1.05 2.9-1.8 4.807-.9 2.366-2.175 5.19-2.175 7.174 0 1.45.975 2.67 2.7 2.67 2.175 0 3-1.296 2.775-1.983-.15-.458-.525-.382-1.35-.382-.6 0-.75-.381-.75-.84 0-.686.3-1.373.675-2.289A375.35 375.35 0 0 1 126 7.48h2.475c1.875 0 2.55-.076 3.225-.534.525-.458.825-.687 1.125-1.069.225-.458.375-1.22-.9-1.22zM55.65 7.784c.975 0 2.025-.916 2.25-2.06.225-1.145-.375-2.06-1.35-2.06-.975 0-2.025.915-2.25 2.06-.225 1.144.375 2.06 1.35 2.06z"/>
		<path d="M59.925 19.613c-.45-.076-.6-.381-.6-.992 0-.687.225-1.603.525-2.671C67.65 12.21 72.825.687 66.975.687c-3.9 0-8.775 8.776-10.275 14.729-.9 1.45-2.325 3.587-3.375 3.587-.825 0-.6-1.069 0-2.671 1.35-3.74 3.3-7.556 3.3-7.556s-.975-.458-2.325-.229c-.9.153-1.275.61-1.65 1.374-.075.076-.075.153-.15.305-2.55 5.571-4.125 8.7-5.625 8.7-1.05 0-.45-1.144.15-2.747 1.35-3.74 3.3-7.555 3.3-7.555s-.975-.458-2.325-.23c-.825.153-1.2.535-1.65 1.298-.3-.763-.825-1.526-2.1-1.526-3.75 0-6.6 4.96-7.425 8.395-.75 1.22-1.8 2.518-2.55 2.518-.75 0-.75-.687-.15-2.29.975-2.518 2.85-6.944 4.275-10.378 3.675.076 7.2.152 9.225.152 1.875 0 2.55-.076 3.225-.534.525-.458.825-.687 1.125-1.068.3-.382.45-1.145-.825-1.145-.675 0-5.775.152-11.85.381.45-1.068.825-1.908 1.05-2.365.15-.077-.075-.382-.525-.306-.675.077-.975.153-1.725.382-1.125.305-1.425.61-2.025 1.984l-.375.763c-2.4.077-4.875.23-7.125.306-1.35.076-2.775 1.526-1.2 1.526 1.95 0 4.725.076 7.5.076a53.133 53.133 0 0 0-1.5 3.663c-.075.077-.075.23-.15.382-1.95 4.426-4.875 9.158-8.1 9.158-1.275 0-1.8-.84-1.8-1.908 0-.382.075-.84.15-1.297h.45c4.65 0 7.35-2.9 7.35-5.572 0-1.678-1.425-2.747-2.775-2.747-3.825 0-8.475 5.037-8.475 9.692 0 2.519 1.35 4.198 3.6 4.198 3 0 5.4-1.908 7.05-3.969-.075.458-.15.916-.15 1.374 0 1.45.825 2.518 2.175 2.518 1.5 0 2.85-.916 4.05-2.594.225 1.602 1.2 2.594 2.55 2.594 1.575 0 3-1.22 4.05-2.747.075 1.374.525 2.747 2.25 2.747 1.275 0 2.55-.687 4.05-2.823.075 1.373.6 2.9 2.25 2.9 1.575 0 3-1.145 4.275-2.9.15 1.755 1.05 2.823 2.4 2.823 1.35 0 2.55-.916 2.475-1.908-.075-.84-.675-.458-1.125-.534zM66.6 3.205c.825 0-1.5 6.182-5.7 9.616 1.8-4.503 4.725-9.616 5.7-9.616zm-39.15 7.098c1.425 0 .6 4.12-3.3 4.12h-.075c.9-2.136 2.4-4.12 3.375-4.12zm13.05 8.929c-2.175 0 1.5-8.471 3.6-8.471.825 0 1.05.534 1.2.992-1.725 4.044-3.075 7.479-4.8 7.479z"/>
	</g>
</svg>